<?xml version="1.0" encoding="UTF-8"?>
<svg id="Layer_2" data-name="Layer 2" xmlns="http://www.w3.org/2000/svg" version="1.1" viewBox="0 0 920.2 193.3">
  <defs>
    <style>
      .cls-1 {
        fill: #228e77;
      }

      .cls-1, .cls-2, .cls-3 {
        stroke-width: 0px;
      }

      .cls-2 {
        fill: #000;
      }

      .cls-3 {
        fill: #294890;
      }
    </style>
  </defs>
  <g id="Layer_1-2" data-name="Layer 1-2">
    <g>
      <path class="cls-2" d="M120.3,61.2H52.3v108.3c0,3.1,1,6,3,8.9,2.1,3.1,4.6,4.7,7.5,4.7,13.3,0,20-13.8,20-41.4l27,15.5c-10.3,22.9-26.2,34.2-47.8,34.1-12.5,0-22.3-5.8-29.3-17.2-3-4.9-4.6-9.9-4.6-14.8V61.2H0v-16.1h28.1V0l24.2,16.8v28.3h68v16.1Z"/>
      <path class="cls-2" d="M147.7,183.7c-8.4-6.4-12.6-15.4-12.6-27.1s5-22.1,15-28.7c10-6.6,24.6-9.9,43.9-9.9h34.5v-8.6c0-9.6-2.9-17-8.6-22.1-5.7-5.1-13.9-7.7-24.7-7.7s-18.5,2.4-24.7,7.3c-6.2,4.9-9.9,11.9-11,21h-20.5c1.6-12.7,7.5-22.4,17.6-29.2,10.1-6.8,23.6-10.1,40.6-10.1s33.3,3.8,43.3,11.2c9.9,7.5,14.9,18.2,14.9,32.3v39.1c0,14.3,1.2,27.5,3.7,39.6h-25.2c-1.8-7.2-2.9-13.7-3.4-19.6-4.9,7.5-11.2,13-19.1,16.6-7.8,3.6-16.6,5.4-26.4,5.4-16.5,0-28.9-3.2-37.3-9.5h0ZM218,172.5c7-6.8,10.5-15.4,10.5-25.7v-18.1h-26.9c-26.4,0-39.6,9.2-39.6,27.6s2.5,15.4,7.4,19.8c5,4.4,12.2,6.6,21.6,6.6s19.9-3.4,26.9-10.3h0Z"/>
      <path class="cls-2" d="M447,180.9c-9.1-8.2-13.7-19.5-13.7-33.8v-76h27.1v78.2c0,10.8,2.6,18.9,7.9,24.6s13,8.4,23.1,8.4,20.9-3.9,27.9-11.7c7-7.8,10.5-18.2,10.5-31.3v-68.2h27.1v119.8h-27.1v-20.5c-3.8,7.2-9.7,12.8-17.7,16.9-8.1,4.1-17.2,6.1-27.5,6.1-16,0-28.5-4.1-37.6-12.3h0Z"/>
      <path class="cls-2" d="M604.8,183.6c-10.3-6.4-16.7-15.6-18.9-27.5h21.3c1.3,8.3,5.3,14.8,12.1,19.3,6.8,4.6,15.9,6.8,27.5,6.8s19.3-2.1,25.5-6.4c6.3-4.2,9.4-10,9.4-17.4s-2.8-10.3-8.5-13.8c-5.7-3.5-14.8-6.2-27.1-8.2-20.5-3.3-35.1-7.5-43.8-12.7-8.6-5.2-13-12.5-13-22s4.9-18.4,14.7-24.3c9.8-5.9,23.8-8.9,42-8.9s31.7,3.1,42.4,9.4c10.7,6.3,16.9,15.3,18.7,27h-21.5c-1.5-8-5.5-14.2-12.1-18.7-6.6-4.5-15-6.7-25.3-6.7s-17.5,1.7-23.2,5c-5.7,3.3-8.5,7.9-8.5,13.8s1,6.5,2.9,8.7c2,2.2,5.5,4.2,10.8,5.9,5.2,1.7,13,3.5,23.5,5.3,19.2,3.3,33.2,7.9,42,13.9,8.8,6,13.2,14.1,13.2,24.2s-5.4,21-16.2,27.4c-10.8,6.4-26.4,9.5-46.6,9.5s-30.8-3.2-41.2-9.6h0Z"/>
      <g>
        <path class="cls-1" d="M737.3,190.7h31.6v-92h65.5c7.3,0,13.2,5.9,13.2,13.2v78.8h31.6v-81.3c0-13.8-11.2-25-25-25h-117v106.3h0s0,0,0,0Z"/>
        <rect class="cls-3" x="737.3" y="2.3" width="31.6" height="73.7"/>
      </g>
      <path class="cls-2" d="M414,60.8h-135.9v-16.1h135.9v16.1ZM402.8,109.2c0,5.3-3.2,11.2-9.5,17.9-5.4,5.6-11,9.9-16.9,12.6l-20.2-22.8c6.1-.5,11.9-2.8,17.3-6.7,6.3-4.5,9.4-9.6,9.4-15.3s-2-5.6-5.9-7.8c-3.4-2-6.8-2.9-10.1-2.9-6.9,0-14.3,3.3-22.2,9.9-16,13.4-24,28.3-24,44.6v52h-25.8v-107.9h25.8v10.2c3.9-3.8,11.9-7.9,24-12.1,5.9-2.1,12-3.1,18.3-3.1,13,0,24.1,5,33.2,14.9,4.4,4.8,6.6,10.3,6.6,16.5h0Z"/>
      <g>
        <path class="cls-2" d="M865.2,30.3c-7.7,0-14-6.3-14-14s6.3-14,14-14,14,6.3,14,14-6.3,14-14,14ZM865.2,5.2c-6.1,0-11.1,5-11.1,11.1s5,11.1,11.1,11.1,11.1-5,11.1-11.1-5-11.1-11.1-11.1Z"/>
        <path class="cls-2" d="M864.5,15.2c.8,0,1.3-.2,1.7-.5.3-.3.5-.8.5-1.4s-.2-1.1-.5-1.4c-.3-.3-.9-.4-1.7-.4h-1.6v3.8h1.6M862.9,17.8v5.5h-3.8v-14.6h5.8c1.9,0,3.3.3,4.2,1,.9.6,1.3,1.7,1.3,3.1s-.2,1.8-.7,2.4c-.5.6-1.2,1.1-2.1,1.4.5.1,1,.4,1.4.8.4.4.8,1,1.2,1.9l2.1,4.1h-4l-1.8-3.6c-.4-.7-.7-1.2-1.1-1.5-.4-.3-.9-.4-1.5-.4h-1.1"/>
      </g>
    </g>
  </g>
</svg>